# xmcd CD database file
#
# Track frame offsets:
#	150
#	37727
#	69662
#	102837
#	143323
#	174791
#	210271
#	244083
#	271333
#
# Disc length: 4079 seconds
#
# Revision: 1
# Processed by: cddbd v1.5.1PL0 Copyright (c) Steve Scherf et al.
# Submitted via: CDex 1.51
#
DISCID=680fed09
DTITLE=jaja - めぐり逢い
DYEAR=2003
DGENRE=Jazz
TTITLE0=Home Bound
TTITLE1=Sun Rise
TTITLE2=めぐり逢い
TTITLE3=月夜野
TTITLE4=Desperade
TTITLE5=Villa Sky
TTITLE6=Tatoo
TTITLE7=Take it easy
TTITLE8=I Love You
EXTD=YEAR: 2003
EXTT0=
EXTT1=
EXTT2=
EXTT3=
EXTT4=
EXTT5=
EXTT6=
EXTT7=
EXTT8=
PLAYORDER=
